<?xml version="1.0" encoding="UTF-8" standalone="no"?><!DOCTYPE svg PUBLIC "-//W3C//DTD SVG 1.1//EN" "http://www.w3.org/Graphics/SVG/1.1/DTD/svg11.dtd"><svg width="100%" height="100%" viewBox="0 0 500 500" version="1.1" xmlns="http://www.w3.org/2000/svg" xmlns:xlink="http://www.w3.org/1999/xlink" xml:space="preserve" xmlns:serif="http://www.serif.com/" style="fill-rule:evenodd;clip-rule:evenodd;stroke-linecap:round;stroke-linejoin:round;stroke-miterlimit:1.5;"><path id="hello" d="M450,240L450,450L50,450L50,240L249.5,90L450,240Z" style="fill:none;stroke:#000;stroke-width:1px;"/><path d="M200,170L200,240L300,240L300,170L200,170L200,170Z" style="fill:none;stroke:#000;stroke-width:1px;"/><path d="M85.116,290L85.116,360L170,360L170,290L85.116,290L85.116,290Z" style="fill:none;stroke:#000;stroke-width:1px;"/><path d="M330,290L330,360L410,360L410,290L330,290L330,290Z" style="fill:none;stroke:#000;stroke-width:1px;"/><path d="M205.433,450L205.433,300L290,300L290,450" style="fill:none;stroke:#000;stroke-width:1px;"/><path d="M247.717,170L247.717,240" style="fill:none;stroke:#000;stroke-width:1px;"/><path d="M200,200L300,200" style="fill:none;stroke:#000;stroke-width:1px;"/><path d="M370,290L370,360" style="fill:none;stroke:#000;stroke-width:1px;"/><path d="M330,320L410,320" style="fill:none;stroke:#000;stroke-width:1px;"/><path d="M127.558,290L127.558,360" style="fill:none;stroke:#000;stroke-width:1px;"/><path d="M85.116,320L170,320" style="fill:none;stroke:#000;stroke-width:1px;"/><circle cx="221.433" cy="378.866" r="7.433" style="fill:none;stroke:#000;stroke-width:1px;"/></svg>